<svg version="1" xmlns="http://www.w3.org/2000/svg" width="933.333" height="933.333" viewBox="0 0 700.000000 700.000000"><path d="M567.4 4.2c.3 2.4.5 4.6.5 4.9.1.3.8.6 1.6.6.9 0 1.5-1 1.5-2.6 0-4.2-1.1-7.1-2.7-7.1-1.2 0-1.4.9-.9 4.2zM148.5 4.1c-.4.6-.5 1.3-.2 1.6.3.3-.5 3-1.9 6-2.8 6.5-2.9 7.3-.9 7.3.8 0 1.5-.7 1.5-1.5s.5-1.5 1-1.5c1.2 0-1.1 4.8-4.3 9.5-1.6 2.2-2.2 4.6-2.2 10-.1 3.8-.5 8.1-.8 9.5-.8 3.1-1.5 6.5-2.2 11-.3 1.9-.8 4.2-1 5-.2.8-.7 3.1-1 5-.9 5.9-5.5 21.1-7.5 25-1.1 2.1-2.7 4-3.6 4.4-.9.4-1.4.9-1.2 1.2.3.3.2 2.2-.3 4.2s-1.1 5.7-1.5 8.2c-2.4 18.5-8.7 38.4-13.6 43.7-1.7 1.8-1.9 2.6-.9 5.5.5 1.8 1.3 5.7 1.7 8.5.6 4.5.4 5.3-1 5.3-1.8 0-2.2 5.4-.7 10.7.6 1.9.5 3.5-.1 4.1-.6.6-.3 3.4.7 7.7 2.2 9.7 2.1 15.8-.3 21.6-.8 1.9-.6 4 .6 8.3 1.3 4.9 1.4 6.6.2 12.4-.7 3.7-2.2 9.2-3.2 12.2-1.3 3.7-1.7 6.8-1.3 9.6.4 2.7.1 5-1 7-1.4 2.7-1.4 2.9.5 3.4 2 .5 2 .6-.6 5.7-1.4 2.9-2.9 5.3-3.4 5.3-.8 0-.4 5 .6 7.9.2.7-.6 3-1.8 5-1.3 2-2.1 3.7-2 3.8 1.3 1 1.9 6.8 1.1 9.1-1.3 3.3-1.6 7.3-2.5 32.2-.8 24.3-.8 29.9-.2 37.5.4 4.2.1 6.9-.9 8.9-1 1.9-1.3 4.2-.9 6.7.3 2.1.2 4.9-.4 6.4-1.6 4.3-1.9 7.3-1.1 12.4.4 2.6.4 5.8-.1 7-.4 1.2-1 3.2-1.2 4.4-1.6 7.6-1.6 7.3-3.1 23.2-.4 3.8-.8 7.9-1 9.1-.2 1.1.6 4.5 1.6 7.5 1.1 3 2.8 8.3 3.8 11.9 1.1 3.6 3.7 10.3 5.9 15 9.8 21 12.4 28 11.4 31-1.2 3.4.8 7 3.9 7 1 0 1.9.4 1.9 1 0 .5-.7 1-1.5 1s-1.5.4-1.5 1c0 .5.4 1 .9 1s2.6 1.7 4.8 3.8c4.7 4.4 6.3 9.4 3.9 12.1-2.3 2.5-2.1 3.3 2.9 11.1 3.6 5.6 5 7 7 7 1.9 0 2.8-.8 3.8-3.2l1.3-3.2 2.6 3.5c2.7 3.6 5.7 11.6 7.8 20.9.7 3 1.7 5.8 2.3 6.1 1.4.9 4.7-.1 4.4-1.4-.1-.6.7-1.3 1.8-1.4 1.4-.2 2.7.8 4.3 3.5 2.3 3.8 15.9 17.6 26.1 26.5 6.1 5.4 4.6 6.4-1.9 1.3-4.2-3.3-11.5-6.4-12.6-5.4-1 1 1.7 4.2 6 7.2 2.2 1.7 12.2 8.2 22.2 14.6 13.8 8.8 20.8 12.6 29.5 16 6.3 2.4 13.4 5.5 15.9 7 2.5 1.4 6.8 3.2 9.5 3.9 6.3 1.7 18 5.7 20.8 7.3 1.2.6 2.7 1.8 3.3 2.6.8 1.1 2 1.3 4.4.9 2.7-.6 3.7-.3 5.6 1.8 2 2.2 2.7 2.4 4.5 1.4 2.1-1.1 3.5-1.1 24.4.8 3.9.4 11.3.6 16.5.6 5.2-.1 12.4-.1 16-.1 23.4.4 29.7.1 34.6-1.5 2.8-1 6.1-2 7.4-2.2l2.3-.4-2.1 1.9c-2.9 2.7-13 7.5-21 9.9-13.6 4.1-35.1 9.7-35.9 9.4-.2-.1-2.6.5-5.5 1.3-2.9.7-6.6 1.4-8.1 1.4-4 0-3.3 3.2.8 3.6 3.7.5 11.1.6 14.5.3 1.4-.1 4.1.1 6.2.4 2.7.5 3.7.3 4.2-.9s1.5-1.4 4.4-1c4.6.7 7.8 1.3 10.2 2.1 1 .3 8-1.1 15.6-3.1 7.7-2 15.7-4 17.9-4.5 2.2-.5 7.4-2.1 11.6-3.5 6.6-2.1 7.6-2.8 7.2-4.5-.4-1.5-.2-1.8 1.1-1.3.9.3 1.6 1.2 1.6 2s.2 1.4.4 1.4c.8 0 11.1-5.4 12.6-6.6.8-.7 4.9-2.6 9-4.2 4.1-1.7 11.1-4.8 15.5-6.9 15.2-7.4 40.5-23.2 40.5-25.4v-1.4c-.2-2 4-6.7 7-7.9 3.9-1.5 17.2-14.9 26.5-26.6 3.3-4.1 6.3-8 6.7-8.5 4.3-5.4 8-10.4 13.5-18.3 6.3-9 9.1-11.5 7.8-7-1 3.3-9 18.3-17.8 33.3-4.2 7.1-7.3 13.3-7 13.8 1 1.6 14-13.9 21.1-25.3 2.3-3.6 6.3-10.4 8.9-15.3 3.3-5.9 5.2-8.6 6.2-8.2 1.3.5 7.7-3.6 9.3-5.9 1.6-2.4.8-3.8-1.7-3.2-2.3.6-2.4.4-1.5-1.8 3.6-9.5 10.6-19.6 13.7-19.6.7 0 1.3-.8 1.4-1.8.3-5.8 2.7-16.8 4.6-20.4.7-1.5 2.5-3.5 3.8-4.4 1.9-1.3 2.5-2.4 2.3-4.8-.5-8.4.1-11.6 2.6-12.6 4.8-1.8 6-7.8 1.4-7.1-1.4.2-.9-2.8.5-3.6 2.2-1.3 4.5-5.5 5.7-10.5 1.1-4.1 1-5-.4-6.3-.9-.9-1.6-2.4-1.6-3.2 0-.9.3-1.4.6-1 .4.3 1.2.1 1.9-.6 1.7-1.8 2.7-6.5 1.5-7.2-.8-.5-.8-1.1 0-2 1-1.2.5-11.3-.6-12.4-.2-.2.3-.9 1.2-1.5 1.8-1.4 2.2-7.2 1-15.7-.5-3.9-.2-7.6.8-12.1.9-4.1 1.2-7.7.7-9.9-.4-1.9-.6-9.9-.4-17.9.5-15.6.7-25 .6-29-.1-3.8-.2-25.2-.2-27.5.1-3 .1-4.8 0-7 0-1.1-.1-2.9-.1-4 .1-1.1-.2-12.6-.6-25.5-.7-26.1-.9-58.8-.3-71.5.1-2.2.1-24.7.1-50 0-43-.3-56.4-1.7-62.5-.6-2.9-1.2-6.4-2-13.5-.3-2.7-.8-5.1-1-5.3-.2-.2-1.2.2-2.4 1-3.3 2.1-4.3-.1-4.3-9.6-.1-4.7-.4-8.6-.7-8.6-2.1.1-3.2 2.1-2.9 5.1.3 3.1.1 3.4-2.2 3-1.4-.1-3.7-1.2-5.3-2.3-2.7-1.9-2.7-2.1-1.2-4.4 2.2-3.4 1.3-8.4-2.1-11.1-2.2-1.7-2.8-3.1-2.8-6.2-.1-4.9-1.6-6.7-4.4-5.2-1.7.9-1.9 1.6-1.1 4.8 1.3 5.9 1.1 10.3-.5 10.3s-2.3-1.7-3-7.5c-.3-2.2-1.2-7.3-2-11.3-.9-4-1.6-7.5-1.6-7.7 0-1.1-3.2 1-4.1 2.7-.8 1.5-.7 2.4.4 3.6 1.3 1.5 1.2 2.2-.2 5.6-2 4.7-2.4 4.3-4.6-4.9-.9-3.9-1.9-7.8-2.1-8.8-1-3.5-3.5-1.6-6.7 5-1.7 3.8-4.6 9-6.4 11.8-1.8 2.7-3.3 5.7-3.3 6.5 0 .9-.5 2.1-1.2 2.8-.7.7-1.2 4.2-1.3 7.9-.2 8-1.6 11.4-5.4 13.1-2.6 1.1-3.8 3.2-7.1 11.8-.5 1.2-1.2 4.3-1.5 7-1 6.9-2.1 8.6-3.3 5.4-.8-1.9-.7-2.8.5-3.7 1.2-.9 1.3-2.5.8-7.5-1.7-16.3-2.4-17.7-7.2-14.3-2.2 1.5-3.8 5.5-4.7 11.2-.3 2.5 0 3.4 1.4 3.8 4.1 1.3 5 3.7 3.9 10.6-1.2 7.5-1.7 13-1.8 21.6-.1 5-.4 6.3-1.9 6.7-1.6.5-1.8 1.7-1.7 7.6.1 5-.2 7-1.1 7-2.5 0-4.1 3-4.8 8.7-.4 3.2-.9 7.1-1.1 8.8-1 7.2-2.7 18.8-3 20.8-.2 1.2-.9 7.1-1.5 13.2-.6 6-1.3 12.1-1.6 13.5-.2 1.4-.6 5.6-.9 9.5-.4 3.8-.8 8.3-1 10-.2 1.6-.7 7-1 12-.4 4.9-.8 10-1 11.2-.4 2.4-1.8 27.6-1.8 33.3-.1 1.9.2 5.6.5 8.3.4 2.6.2 6.2-.4 8-.5 1.7-1.1 7.6-1.3 13l-.3 9.7 2.7-.2c2.7-.3 2.8 0 1.6 5.4-.4 2.3-.2 2.8 1.5 2.8 2.7 0 2.5 1.6-.4 5.1-1.4 1.6-2.8 4.9-3.2 7.4-.7 5.1-1.8 6.4-3.2 3.9-1.3-2.4-4.2-1-4.2 2 0 1.9.7 2.6 2.9 3.1 4.4.9 5.4 2.8 4.7 8-.7 4.2-2.5 7.2-2.7 4.3-.3-5.7-2-9.8-4-9.8-.4 0-1.1 2.6-1.4 5.7-.4 3.2-.9 6.9-1.1 8.3-1.1 7.5-1.5 14.1-1.7 29-.2 15.7-.4 17-3.5 27-6.8 21.3-13.6 37.1-20.7 48.2-2.5 3.8-4.5 7.2-4.5 7.6 0 1.6-6.1 9.7-11.2 15.1-12 12.4-36.5 33.8-37.5 32.7-.2-.2 2.7-8.1 3-8.1l-1.1-2.2c-.7-1.2-1.8-2.1-2.5-1.8-.6.2-2.4.6-3.9.9-3.9.9-3.7 3.6.2 3.6 1.7 0 3 .2 3 .5 0 1.4-6.5 10.7-8.1 11.6-1.8.9-1.9.7-1.3-1.8l.7-2.8-2.4 2c-1.3 1.1-2.6 2.2-2.9 2.5-2.9 3.1-6.5 4.9-9 4.4-1.5-.3-3-.1-3.4.4-.6 1.1-6.6-.6-6.6-1.8 0-.9 10.7-5.7 18.8-8.6 7.4-2.6 8.6-3.9 4.7-5.4-2.2-.8-3.7-.4-9.2 2.5-3.6 1.9-7.2 3.5-8 3.5-.7 0-1.3.4-1.3 1 0 .5-.5 1-1.1 1-.6 0-5.5 1.6-10.8 3.6-6.7 2.6-11.7 3.8-16.6 4.1-3.8.2-7.9.4-9 .6-2.9.3-3-2.9-.2-5.7 3.1-3.1 2-6-1.8-4.6-2 .8-2.3.6-2-1 .5-2.5.1-2.7-8.7-4.9-11-2.9-18.1-5.8-24.7-10.2-3.2-2.1-6.4-3.9-7.1-3.9-2 0-8.2-3.2-13.5-6.9-2.7-1.9-10.2-8.8-16.6-15.2-10.3-10.2-12.1-12.6-15.7-20.2-3.2-6.9-4.8-9-8-11.1-2.2-1.3-5.7-4.6-7.8-7.3-2.2-2.6-4.1-5-4.4-5.3-3.5-3.4-10.4-17.1-14.6-28.8-3.1-8.7-3.4-10.6-3.4-20.6 0-6.1-.4-11.7-.9-12.5-.5-.7-.5-2.9 0-5 .4-2 1.1-5.2 1.4-7.1.3-1.9 1.4-6.7 2.4-10.6 1.1-4.3 1.5-7.7 1-8.5-.5-.8-.6-2.1-.4-2.9.3-.8.7-3.1 1-5 .5-4.1 1.7-14.3 1.7-15 0-2.2-.4-3-1.7-3-1.1 0-1.5 1.2-1.5 5.1 0 4-.3 4.9-1.2 4.1-2.3-1.8-1.3-6.9 2-10.7 1.8-1.9 3.3-4 3.3-4.5.1-.6.2-1.3.4-1.8 1.8-6.8 2.4-17 1.2-20.7-.5-1.7-.9-9.7-.8-17.9.1-14.3 0-15.1-2.3-18.6-2.6-4-4.8-13.1-3.6-15 .6-1 .5-27.2-.1-30.5-.1-.6.2-3.7.5-7 1.7-14.4 2.6-24.1 3.2-35 .3-5.5.7-10.1.9-10.3.2-.2-.1-1.8-.6-3.5-1.1-3.9-1.3-14.5-.4-21.7.6-5.1.5-5.6-1.7-6.5-1.3-.6-2.2-1.5-2.1-2 0-.6.4-4.4.7-8.5.3-4.1.9-9.8 1.2-12.5.2-2.8.6-10.9.8-18 .6-26.3-2.9-43.4-11.6-56.1-2.6-3.8-4.5-3.7-11.3.2-5.8 3.4-8.5 6.1-13.7 13.4-6 8.4-8.1 10.3-10.6 9.6-1.9-.6-2-1.4-1.6-10.9.5-12.8 2-21.1 4.5-26 2.6-5.1 1.8-7.3-2.8-8-5.7-1-7.7 2-9.9 14-.2 1.3-.6 3.5-.9 5-.7 3.9-2.2 14.7-3 21.3-.8 7.3-1.3 8.7-2.9 8.7-2.1 0-5.4-24.1-3.5-25.3.4-.2.3-1.9-.2-3.7-.5-1.7-.7-4.3-.4-5.7.3-1.4.8-9 1-16.8.3-11.6.1-14.2-1-14.2-.8 0-1.7.5-2 1.1zm53.6 59.1c.1 1.3.1 3.9 0 5.8 0 1.9 0 4.6.1 6 .1 2.5.1 5.9-.1 13.5-.1 2.2-.1 5.1-.1 6.5v5.3c0 1.6-1.4 4.6-3.5 7.4-1.9 2.5-3.5 5.2-3.5 5.9 0 .7-.6 1.1-1.4.8-2.2-.8-2.5.3-4.1 13.1-.8 5.9-1.1 8-2.8 16-1.1 5.1-1.6 5.9-3.3 5.7-2.7-.5-2.8-.7-2.9-7.2-.1-5.8 0-5.9 2.4-5.3l2.4.6-3.1-5.4-3.1-5.5 2.9-1.1c2.4-.9 3-1.7 3-4.2 0-2.1-.5-3.1-1.5-3.1-.8 0-1.5.7-1.5 1.5s-.7 1.5-1.5 1.5c-1.8 0-1.8-.8 0-4 2.4-4.2 1.9-11.6-1-15.4-3.4-4.4-3.2-6.1.5-5.8.3 0 .5-3.1.5-6.9 0-3.8.2-6.9.5-6.9 1.6.1 3.5 2.2 3.6 4.2.2 6 .4 6.4 2.9 6.4 2.2 0 2.5-.4 2.5-3.5 0-2.9 1.3-3.7 1.6-1 .1.5.2 1.3.3 1.9 0 .5.8 1 1.6 1 1.1 0 1.5-1.1 1.5-4 0-2.2.4-4 .8-4 .5 0 .8 3.1.7 7-.2 6 .1 7 1.5 7 1.6 0 1.7-1.2 1.5-11.8-.2-6.4-.6-14.1-.9-17-.4-3.3-.2-5.2.5-5.2.5 0 .7-.5.4-1-.3-.6.1-1 .9-1 .9 0 1.7.9 1.7 2.2zm-16.7.5c1.4 4.8 1.4 7.3 0 7.3-1.5 0-1.5.1-1.8-5.3-.2-3.8.9-5 1.8-2zm371.3 3.1c1.9 4.5 2 6.6.8 11.9-.9 3.9-2.2 2.6-5.6-5.8-3.1-7.9-3.2-8.2-1.4-9.5 3-2.3 4.1-1.7 6.2 3.4zm41.4 18.9c1.5 4 2.3 11.3 1.2 11.3-1.7 0-5.5-8.9-4.9-11.6.8-3.2 2.4-3.1 3.7.3zm10.7 26.3c.7 5.9.7 8.9 0 9.7-1.7 2.1-2.4 1.5-2.6-2-.1-1.7-.5-4-.8-4.9-.7-2.2-3.4-1.2-3.4 1.3 0 2.1-1.9 2.7-2.1.6-1.5-16.2-1.5-15.9 1.5-15.1 1.7.4 2.5.1 3-1.3 1.3-3.1 3.3 2.2 4.4 11.7zm-429.4-2.2c.6 1.1-.4 5.2-1.3 5.2-.4 0-.8-1.4-.9-3-.2-2.8 1-4 2.2-2.2zM142 127.5c0 5.9-1.5 5.9-1.6 0 0-2.5.3-4.5.8-4.5.4 0 .8 2 .8 4.5zm383.6 5c-1.1 7.8-2 7.6-2.1-.6 0-4.7.3-5.9 1.5-5.9 1.4 0 1.5.8.6 6.5zm84.1 10.7c.4 3.2.3 3.2-3.2 1.6-2.7-1.2-3.3-3.3-1.2-4.1 2.4-1.1 4-.1 4.4 2.5zm-6.3 5.4c1.2.5 1.3 1 .5 2.5-.5 1-.6 1.9-.2 1.9.9 0-1.9 2-2.9 2-.4 0-.3-1.3.2-2.9.4-1.6.6-3.2.2-3.5-.7-.8.2-.8 2.2 0zM140.5 155c1.3 2.4 1.3 3.3.3 5-.7 1.1-1.6 2-2 2-.3 0-.4 2.4-.1 5.4.7 7.2 0 9.1-2.7 7.4-1.6-1-1.9-2.1-1.6-4.8.3-1.9.8-6 1.2-9 .6-5.1 1.9-9 2.9-9 .3 0 1.1 1.3 2 3zm-23.4 24.2c.1 1.3.2 9.6.3 18.4.1 12.2-.2 16-1.1 15.7-3.1-1.2-5.1-16.2-2.8-21.6 1.1-2.8 1.3-4.7.7-7-1-3.4 0-7.7 1.8-7.7.5 0 1.1 1 1.1 2.2zm21.3 7.4c.3 2.5.2 5.3-.3 6.1-.5.9-.3 3.4.5 6.1 2 6.4 1.8 7.2-2.2 11.9-3.4 4-7.9 5.9-6.9 3 .2-.6.7-3 1-5.2.7-5.4 3.5-13.5 4.5-13.5.8 0 .6-4.7-.6-10.3-.5-2.2-.2-2.7 1.4-2.7 1.5 0 2.1.9 2.6 4.6zm-15.8 39.3c-1.3 6.4-1.5 8.7-.6 10 .6 1 .4 1.8-.6 2.6-1.3.9-1.2 1.4.6 3.8 2.4 3.1 2 7.8-.5 5.7-3.2-2.7-4.8 1.6-6.4 17.2-.1.5-.5.8-1 .8-.4 0-.7-1.2-.4-2.8.2-1.5.5-6.3.8-10.7.4-7.1.9-12.2 2-19.2.2-1.2-.2-2.4-.8-2.6-.8-.2-.6-.9.6-2.1.9-1 1.7-3.2 1.7-5.2V220l2.5 1.6c2 1.3 2.5 2.3 2.1 4.3zm97.4 89.3c0 2.7-1.3 5.8-2.1 5.2-1.6-.9-1-6.4.6-6.4.8 0 1.5.6 1.5 1.2zm288 64.2c-.4 1.9-.5 3.7-.2 4 .3.4-.2.6-1.2.6-.9 0-1.5-.4-1.2-.8.3-.5.1-2.2-.3-3.8-.6-2-.3-3.8.7-5.9l1.5-3 .8 2.7c.4 1.5.4 4.3-.1 6.2zm-8.3 1.4c-.4 2.7-1.7 4.2-3.1 3.6-1.2-.4-1.1-1 .1-3.5 1.5-3 3.5-3.1 3-.1zM98.3 435c.4 1.6.3 7.8 0 13.7-1 16.7-.9 21.8.5 21.6 1.3-.3 4.5 5.1 3.5 6.1-1.7 1.7-3.4-.1-7.2-8-5.4-11.3-5.7-12.8-3.3-15.4 2.2-2.4 4.1-10.5 3.9-16.8-.2-4.9 1.7-5.8 2.6-1.2zM592 461c0 1.6-.3 3-.8 3-.4 0-.7-1.4-.7-3-.1-1.7.3-3 .7-3 .4 0 .8 1.3.8 3zm-463.2 46.7c3.2 4.9 5.8 9.9 5.8 11.3 0 1.4.4 3.5.8 4.7 1.5 4.5-2.7 1.2-5.4-4.2-.3-.6-2.4-4.2-4.7-8-8.7-14.5-5.8-17.6 3.5-3.8zm459.7 13c-.4 1.6-.8 3.4-.8 4 0 1.4-1 1.7-1.9.7-.8-.8 1.4-7.4 2.5-7.4.5 0 .6 1.2.2 2.7zM502 613.1c0 1-12 13.2-28.6 28.9-10.8 10.3-49.5 33.2-69.1 40.9-10.2 4-24.3 7-24.3 5.1 0-.6.7-1.3 1.6-1.7.8-.3 1.3-1.1 1-1.8-.7-2 .3-2.5 3-1.5 2.7 1.1 5.8-.1 23-8.6 6-3 11.6-5.4 12.3-5.4 5.1 0 23.1-11.3 38.1-24 6.7-5.6 8.8-6.8 10.7-6.4 1.7.5 2.3.2 2.3-.9 0-.9.9-1.8 1.9-2.2 5.9-1.8 18.8-12.3 24.6-20 2.9-3.7 3.5-4.1 3.5-2.4zm-26.1 40.4c-3.1 3.1-6.9 4.7-6.9 2.7 0-.6 8.7-6.1 9.9-6.2.2 0-1.1 1.6-3 3.5zm-34.5 2c-.4.8-1.6 1.5-2.8 1.5-2.1-.1-2.1-.1-.2-1.5 2.5-1.9 3.7-1.9 3 0zM415 666.8c0 1.1-6.9 4.6-7.6 3.9-.4-.4.5-1.1 1.9-1.6s2.8-1.5 3.2-2c.7-1.3 2.5-1.5 2.5-.3zM367 691c0 1.1-6.4 4-8.8 4-2.2 0-.6-1.3 4.1-3.2 2.3-.9 4.3-1.7 4.5-1.7.1-.1.2.3.2.9z"/><path d="M602 107.9c0 1.9 2.2 2.3 3.8.7 1.5-1.5 1.4-1.6-1.1-1.6-1.5 0-2.7.4-2.7.9zM568.6 21.7c1 4.8 1.3 5.3 2.9 5.3 1.1 0 1.5-1.1 1.5-4 0-3.6-.2-4-2.5-4-2.2 0-2.5.3-1.9 2.7zM559.2 27.6c-2.3 1.6-2.8 3.9-1.3 6.2.6 1 1.3 1.1 3.4.1 3-1.3 4-3.3 3.2-6-.8-2.3-2.3-2.4-5.3-.3zM576 39.4c0 1.6 4.1 9.6 4.9 9.6.4 0 1.5-.6 2.5-1.3 1.8-1.3 1.8-1.5-.5-5.5-1.8-3.1-3-4.1-4.6-3.9-1.3.1-2.3.6-2.3 1.1zM596.7 51.9c-1.5.6-1.6.9-.4 2.5 1.1 1.5 1.5 1.6 2.4.4 1.6-1.8.3-3.7-2-2.9zM605 79.9c0 .3.5 1.3 1 2.1.8 1.3 1.1 1.3 2.5-.1 1.5-1.5 1.5-1.7-.9-2.1-1.4-.3-2.6-.2-2.6.1zM220.7 187.7c-.3.5.3 3.3 1.2 6.4 1 3 1.5 6.3 1.2 7.2-1.2 3.3-.3 19 1.1 19.8 2 1.2 2.6 0 3.4-6.6.3-3.3 1-6.9 1.4-8 1-2.6.4-11.9-1.1-16.2-.9-2.7-1.6-3.3-3.9-3.3-1.6 0-3.1.3-3.3.7zM223.7 225.7c-.6 1.3-.3 3.3.6 3.3h1.7c.6 0 1-.9 1-2 0-1.9-2.5-2.8-3.3-1.3zM222.6 240.2c-1.3 6.5-2.1 24.4-1.2 25 2.3 1.6 3.1-.1 3.2-6.8.1-3.8.6-8 1.1-9.4.8-2.3.9-4 .5-9.3-.3-2.5-3.1-2.1-3.6.5zM555.9 592.2c-.7 1.3-1.8 2.9-2.6 3.6-1.7 1.8-1.7 3.2.2 3.2.8 0 1.5-.7 1.5-1.5s.9-2.4 2-3.5 2-2.5 2-3c0-1.8-1.9-1-3.1 1.2zM516.8 630.6c-7.5 6.3-15 15.6-13.6 16.9 2 2 22.3-16 21.2-18.9-.9-2.4-2.8-2-7.6 2zM489.6 658c-2.1 1.6-4.3 3.1-4.8 3.2-.5.2-.6 1.1-.3 2 .6 1.5 1.5 1.1 6.1-2.4 3-2.2 5.4-4.4 5.4-4.9 0-1.7-2.5-.8-6.4 2.1zM465 675c-1.1 2.1-.8 2.3 2.7 1.4 1.3-.4 2-1.1 1.6-2-.8-2-3.1-1.7-4.3.6zM305 697c0 1.1.3 1.9.8 1.8.4-.1 2.5.1 4.6.6 2.8.5 4.1.4 4.7-.6 1.1-1.8-3-3.9-5.3-2.7-1 .6-1.9.5-2.3-.1-1-1.7-2.5-1.1-2.5 1z"/></svg>